#N canvas 0 38 1728 1051 10;
#X obj 25 323 *~ 0.1;
#X obj 25 542 dac~;
#X obj 530 205 - 0.5;
#X obj 530 225 * 2;
#X obj 25 367 *~;
#X obj 530 185 max 0.5;
#X obj 530 247 sqrt;
#X obj 27 33 hsl 128 12 5 700 0 1 \$0-frange \$0-franger F0-range 40 6 1 8 #fcfcfc #000000 #000000 3800 1;
#X obj 41 183 r \$0-frange;
#X obj 25 206 *;
#X obj 25 252 +;
#X obj 41 228 r \$0-base;
#X obj 27 45 hsl 128 12 2 300 0 1 \$0-base \$0-baser F0-base 40 6 1 8 #fcfcfc #000000 #000000 3791 1;
#X obj 140 184 r \$0-cordr;
#X obj 124 204 *;
#X obj 27 57 hsl 128 12 0.2 5 0 1 \$0-cordr \$0-cordrr cord-ripple 40 6 1 8 #fcfcfc #000000 #000000 2300 1;
#X obj 27 93 hsl 128 12 10 500 0 1 \$0-tractb \$0-tractbr tract-base 20 6 1 8 #fcfcfc #000000 #000000 10600 1;
#X obj 210 206 *;
#X obj 27 105 hsl 128 12 10 500 0 1 \$0-tractbm \$0-tractbmr tract-baserise 20 6 1 8 #fcfcfc #000000 #000000 11200 1;
#X obj 210 247 +;
#X obj 332 223 r \$0-tractl;
#X obj 226 226 r \$0-tracb;
#X obj 226 184 r \$0-tractbm;
#X obj 332 184 r \$0-tractlm;
#X obj 316 205 *;
#X obj 316 243 +;
#X obj 27 117 hsl 128 12 10 100 0 1 \$0-traclm \$0-traclmr tract-lengthmod 20 6 1 8 #fcfcfc #000000 #000000 9400 1;
#X obj 27 129 hsl 128 12 10 200 0 1 \$0-tractl \$0-tractlr tract-length 20 6 1 8 #fcfcfc #000000 #000000 8900 1;
#X obj 27 141 hsl 128 12 2 40 0 1 \$0-tracrm \$0-tracrmr tract-resmod 20 6 1 8 #fcfcfc #000000 #000000 10200 1;
#X obj 430 185 r \$0-tractrm;
#X obj 414 205 *;
#X obj 430 225 r \$0-tractres;
#X obj 414 245 +;
#X obj 27 153 hsl 128 12 5 60 0 1 \$0-tractres \$0-tractres tract-res 20 6 1 8 #fcfcfc #000000 #000000 3400 1;
#X obj 53 250 r \$0-cordw;
#X obj 27 69 hsl 128 12 1 100 0 1 \$0-cordw \$0-cordwr cord-width 40 6 1 8 #fcfcfc #000000 #000000 3600 1;
#N canvas 781 270 247 409 cord 0;
#X obj 54 85 cos~;
#X obj 54 43 -~ 0.5;
#X obj 54 108 +~ 1;
#X obj 105 131 cos~;
#X obj 54 159 *~;
#X obj 105 109 *~;
#X obj 54 21 phasor~ 100;
#X obj 54 131 *~ 0.5;
#X obj 121 65 sig~;
#X obj 121 86 lop~ 10;
#X obj 3 275 /~;
#X obj 54 227 *~;
#X obj 54 248 +~ 1;
#X obj 3 249 sig~ 1;
#X obj 3 391 outlet~;
#X obj 3 366 hip~ 1;
#X obj 54 201 *~;
#X obj 70 179 inlet cord width;
#X obj 121 41 inlet cord ripple;
#X obj 54 0 inlet cord freq;
#X obj 49 278 noise~;
#X obj 33 304 *~;
#X obj 3 332 *~;
#X obj 33 332 *~;
#X obj 97 278 sig~ 1;
#X obj 97 302 -~;
#X obj 113 233 inlet noisiness;
#X obj 113 254 sig~;
#X connect 0 0 2 0;
#X connect 1 0 5 0;
#X connect 1 0 0 0;
#X connect 2 0 7 0;
#X connect 3 0 4 1;
#X connect 4 0 16 0;
#X connect 5 0 3 0;
#X connect 6 0 1 0;
#X connect 7 0 4 0;
#X connect 8 0 9 0;
#X connect 9 0 5 1;
#X connect 10 0 21 0;
#X connect 10 0 22 0;
#X connect 11 0 12 0;
#X connect 12 0 10 1;
#X connect 13 0 10 0;
#X connect 15 0 14 0;
#X connect 16 0 11 0;
#X connect 16 0 11 1;
#X connect 17 0 16 1;
#X connect 18 0 8 0;
#X connect 19 0 6 0;
#X connect 20 0 21 1;
#X connect 21 0 23 0;
#X connect 22 0 15 0;
#X connect 23 0 15 0;
#X connect 24 0 25 0;
#X connect 25 0 22 1;
#X connect 26 0 27 0;
#X connect 27 0 23 1;
#X connect 27 0 25 1;
#X restore 25 300 pd cord model;
#X obj 82 270 r \$0-cordnz;
#X obj 27 81 hsl 128 12 0 1 0 1 \$0-cordnz \$0-cordnzr cord-noise 40 6 1 8 #fcfcfc #000000 #000000 5000 1;
#N canvas 0 38 462 479 tract 0;
#X obj 136 100 +;
#X obj 3 420 bp~ 1 1;
#X obj 409 354 inlet;
#X text 410 331 res;
#X obj 60 419 bp~ 1 1;
#X obj 166 144 +;
#X obj 119 418 bp~ 1 1;
#X obj 176 417 bp~ 1 1;
#X obj 196 188 +;
#X obj 235 417 bp~ 1 1;
#X obj 292 416 bp~ 1 1;
#X obj 351 415 bp~ 1 1;
#X obj 408 414 bp~ 1 1;
#X obj 226 229 +;
#X obj 256 270 +;
#X obj 286 312 +;
#X obj 316 355 +;
#X obj 189 460 outlet~;
#X obj 182 61 * 1.414;
#X obj 212 100 * 1.414;
#X obj 242 139 * 1.414;
#X obj 272 178 * 1.414;
#X obj 302 218 * 1.414;
#X obj 332 259 * 1.414;
#X obj 152 42 t f f;
#X obj 182 80 t f f;
#X obj 212 120 t f f;
#X obj 242 158 t f f;
#X obj 272 198 t f f;
#X obj 302 238 t f f;
#X obj 136 122 t f f;
#X obj 166 164 t f f;
#X obj 196 208 t f f;
#X obj 226 249 t f f;
#X obj 256 291 t f f;
#X obj 286 332 t f f;
#X obj 106 78 t f f;
#X obj 152 22 inlet separation;
#X obj 106 1 inlet base;
#X obj 3 20 inlet~ audio;
#X connect 0 0 30 0;
#X connect 1 0 17 0;
#X connect 2 0 12 2;
#X connect 2 0 11 2;
#X connect 2 0 10 2;
#X connect 2 0 9 2;
#X connect 2 0 7 2;
#X connect 2 0 6 2;
#X connect 2 0 4 2;
#X connect 2 0 1 2;
#X connect 4 0 17 0;
#X connect 5 0 31 0;
#X connect 6 0 17 0;
#X connect 7 0 17 0;
#X connect 8 0 32 0;
#X connect 9 0 17 0;
#X connect 10 0 17 0;
#X connect 11 0 17 0;
#X connect 12 0 17 0;
#X connect 13 0 33 0;
#X connect 14 0 34 0;
#X connect 15 0 35 0;
#X connect 16 0 12 1;
#X connect 18 0 25 0;
#X connect 19 0 26 0;
#X connect 20 0 27 0;
#X connect 21 0 28 0;
#X connect 22 0 29 0;
#X connect 23 0 16 1;
#X connect 24 0 0 1;
#X connect 24 1 18 0;
#X connect 25 0 5 1;
#X connect 25 1 19 0;
#X connect 26 0 8 1;
#X connect 26 1 20 0;
#X connect 27 0 13 1;
#X connect 27 1 21 0;
#X connect 28 0 14 1;
#X connect 28 1 22 0;
#X connect 29 0 15 1;
#X connect 29 1 23 0;
#X connect 30 0 4 1;
#X connect 30 1 5 0;
#X connect 31 0 6 1;
#X connect 31 1 8 0;
#X connect 32 0 7 1;
#X connect 32 1 13 0;
#X connect 33 0 9 1;
#X connect 33 1 14 0;
#X connect 34 0 10 1;
#X connect 34 1 15 0;
#X connect 35 0 11 1;
#X connect 35 1 16 0;
#X connect 36 0 1 1;
#X connect 36 1 0 0;
#X connect 37 0 24 0;
#X connect 38 0 36 0;
#X connect 39 0 1 0;
#X connect 39 0 4 0;
#X connect 39 0 6 0;
#X connect 39 0 7 0;
#X connect 39 0 9 0;
#X connect 39 0 10 0;
#X connect 39 0 11 0;
#X connect 39 0 12 0;
#X restore 25 345 pd tract comb filter;
#X obj 239 139 * 1;
#X obj 869 40 tgl 16 0 empty empty empty 0 -8 0 10 #fcfcfc #000000 #000000 0 1;
#X obj 869 82 i;
#X obj 869 103 + 1;
#X obj 869 184 cos;
#X floatatom 869 295 5 0 0 0 - - - 0;
#X obj 869 315 * 0.5;
#X obj 869 336 + 0.5;
#X floatatom 869 357 5 0 0 0 - - - 0;
#X obj 869 61 metro 100;
#X obj 869 124 / 5;
#X obj 641 480 r \$0-frange;
#X obj 721 480 r \$0-base;
#X obj 789 480 r \$0-cordr;
#X obj 1263 480 r \$0-tractl;
#X obj 1017 480 r \$0-tracb;
#X obj 1091 480 r \$0-tractbm;
#X obj 1177 480 r \$0-tractlm;
#X obj 1343 480 r \$0-tractrm;
#X obj 1429 480 r \$0-tractres;
#X obj 863 480 r \$0-cordw;
#X obj 937 480 r \$0-cordnz;
#X obj 640 820 s \$0-franger;
#X obj 720 820 s \$0-baser;
#X obj 788 820 s \$0-cordrr;
#X obj 862 820 s \$0-cordwr;
#X obj 936 820 s \$0-cordnzr;
#X obj 1016 820 s \$0-tracbr;
#X obj 1090 820 s \$0-tractbmr;
#X obj 1176 820 s \$0-tractlmr;
#X obj 1262 820 s \$0-tractlr;
#X obj 1342 820 s \$0-tractrmr;
#X obj 1428 820 s \$0-tractresr;
#X obj 589 489 bng 16 250 50 0 empty empty empty 0 -8 0 10 #fcfcfc #000000 #000000;
#X obj 641 522 f;
#X obj 641 543 pack f f f f f f f f f f f, f 136;
#X listbox 641 564 20 0 0 0 - - - 0;
#X obj 919 184 cos;
#X obj 869 205 * 0.5;
#X obj 919 205 * 0.5;
#X obj 869 226 +;
#X obj 911 149 * 1.1;
#X obj 979 184 cos;
#X obj 971 149 * 0.3;
#X obj 869 247 +;
#X obj 979 205 * 0.1;
#X obj 640 780 line;
#X msg 720 759 \$1 100;
#X obj 720 780 line;
#X msg 800 759 \$1 100;
#X obj 800 780 line;
#X obj 880 780 line;
#X obj 960 780 line;
#X obj 1040 780 line;
#X msg 1120 759 \$1 100;
#X obj 1120 780 line;
#X obj 1200 780 line;
#X obj 1280 780 line;
#X obj 1360 780 line;
#X obj 1440 780 line;
#X msg 880 759 \$1 400;
#X msg 1040 759 \$1 1000;
#X msg 960 759 \$1 1000;
#X msg 1200 759 \$1 33;
#X msg 1280 759 \$1 1000;
#X msg 1360 759 \$1 2000;
#X msg 1440 759 \$1 1000;
#X msg 640 759 \$1 1000;
#X msg 936 73 0;
#X obj 1093 45 * 8;
#X obj 1093 66 int;
#X obj 1093 87 change;
#X floatatom 1093 108 5 0 0 0 - - - 0;
#X obj 1095 15 + 1;
#X obj 1095 -6 * -1;
#X obj 1095 -72 r espd/ain/1;
#X obj 1093 128 select 0 1 2 3 4 5 6 7;
#X obj 1193 632 s \$0-params1;
#X obj 640 738 unpack f f f f f, f 53;
#X obj 1040 738 unpack f f f f f f, f 68;
#X obj 1592 82 int;
#X obj 1592 103 change;
#X floatatom 1592 124 5 0 0 0 - - - 0;
#X obj 1594 31 + 1;
#X obj 1594 10 * -1;
#X obj 1592 144 select 0 1 2 3 4 5 6 7;
#X msg 1092 152 5 5 0.351181 79.7323 0.133858;
#X msg 1128 184 15.9449 2 0.464567 67.2598 0.393701;
#X msg 1156 227 10.4724 9.64567 2.27874 50.8898 0.133858;
#X msg 1173 263 76.1417 5 0.804724 56.3465 0.598425;
#X msg 1212 302 81.6142 25.9055 2.08976 71.1575 0.614173;
#X msg 1236 350 212.953 90.9449 1.06929 29.063 0.393701;
#X msg 1276 387 338.819 79.3307 1.97638 56.3465 0.598425;
#X msg 1343 427 683.583 5 3.22362 14.252 0.614173;
#X msg 1591 168 0 345.669 0 84.8031 0 26.6535;
#X msg 1727 325 0 442.126 0 143.15 0 19.7244;
#X obj 1692 648 s \$0-params2;
#X obj 140 711 r espd/ain/0;
#X obj 220 711 r espd/ain/1;
#X obj 300 711 r espd/ain/2;
#X obj 63 704 tgl 16 0 empty empty empty 0 -8 0 10 #fcfcfc #000000 #000000 0 1;
#X obj 109 632 loadbang;
#X msg 214 633 \; pd dsp 1;
#X obj 141 752 f;
#X obj 577 40 hsl 136 16 0 1 0 0 empty empty empty -2 -8 0 10 #fcfcfc #000000 #000000 0 1;
#X obj 1179 3 hsl 136 16 0 1 0 0 empty empty empty -2 -8 0 10 #fcfcfc #000000 #000000 0 1;
#X obj 1403 7 hsl 136 16 0 1 0 0 empty empty empty -2 -8 0 10 #fcfcfc #000000 #000000 0 1;
#X floatatom 1051 881 5 0 0 0 - - - 0;
#X obj 1040 716 r \$0-params2;
#X obj 640 715 r \$0-params1;
#X obj 141 794 print 0;
#X obj 201 752 f;
#X obj 201 794 print 1;
#X obj 271 752 f;
#X obj 271 794 print 2;
#X obj 1095 -50 clip 0 1;
#X obj 1594 -29 clip 0 1;
#X obj 539 147 print clip;
#X obj 39 759 metro 1000;
#X obj 540 122 f;
#X obj 641 584 print synth;
#X obj 438 -10 r espd/ain/0;
#X obj 1594 -51 r espd/ain/2;
#X obj 438 11 * 1;
#X obj 438 32 + 0;
#X obj 356 884 r espd/ain/0;
#X obj 436 884 r espd/ain/1;
#X obj 516 884 r espd/ain/2;
#X obj 279 877 tgl 16 0 empty empty empty 0 -8 0 10 #fcfcfc #000000 #000000 0 1;
#X obj 357 925 f;
#X obj 417 925 f;
#X obj 487 925 f;
#X obj 279 898 metro 1000;
#X obj 545 1404 vsl 16 136 0 127 0 0 empty empty empty 0 -9 0 10 #fcfcfc #000000 #000000 0 1;
#X obj 340 1140 max;
#X obj 340 1083 t f b;
#X floatatom 340 1161 5 0 0 0 - - - 0;
#X obj 300 1083 t f b;
#X floatatom 300 1161 5 0 0 0 - - - 0;
#X obj 300 1140 min;
#X floatatom 316 1014 5 0 0 0 - - - 0;
#X obj 310 1041 t f f f;
#X obj 394 1083 f;
#X obj 300 1181 pack f f f;
#X obj 300 1202 print 0;
#X obj 319 1107 f 0.5;
#X obj 359 1107 f 0.5;
#X obj 480 1140 max;
#X obj 480 1083 t f b;
#X floatatom 480 1161 5 0 0 0 - - - 0;
#X obj 440 1083 t f b;
#X floatatom 440 1161 5 0 0 0 - - - 0;
#X obj 440 1140 min;
#X floatatom 456 1014 5 0 0 0 - - - 0;
#X obj 450 1041 t f f f;
#X obj 534 1083 f;
#X obj 440 1181 pack f f f;
#X obj 459 1107 f 0.5;
#X obj 499 1107 f 0.5;
#X obj 620 1140 max;
#X obj 620 1083 t f b;
#X floatatom 620 1161 5 0 0 0 - - - 0;
#X obj 580 1083 t f b;
#X floatatom 580 1161 5 0 0 0 - - - 0;
#X obj 580 1140 min;
#X floatatom 596 1014 5 0 0 0 - - - 0;
#X obj 590 1041 t f f f;
#X obj 674 1083 f;
#X obj 580 1181 pack f f f;
#X obj 599 1107 f 0.5;
#X obj 639 1107 f 0.5;
#X obj 440 1202 print 1;
#X obj 580 1202 print 2;
#X obj 1525 288 print params2;
#X obj 614 -59 tgl 16 0 empty empty empty 0 -8 0 10 #fcfcfc #000000 #000000 0 1;
#X obj 614 -37 metro 100;
#X obj 1592 61 * 2;
#X obj 28 434 clip~ -0.5 0.5;
#X obj 438 67 clip 0.1 1;
#X obj 25 478 *~ 0.66;
#X obj 940 1130 f;
#X obj 940 1151 * 255;
#X msg 940 1172 0 \$1 0;
#X obj 940 1193 s espd/led;
#X connect 0 0 39 0;
#X connect 2 0 3 0;
#X connect 3 0 6 0;
#X connect 4 0 217 0;
#X connect 5 0 2 0;
#X connect 6 0 4 1;
#X connect 8 0 9 1;
#X connect 9 0 10 0;
#X connect 10 0 36 0;
#X connect 11 0 10 1;
#X connect 13 0 14 1;
#X connect 14 0 36 3;
#X connect 17 0 19 0;
#X connect 19 0 39 1;
#X connect 20 0 25 1;
#X connect 21 0 19 1;
#X connect 22 0 17 1;
#X connect 23 0 24 1;
#X connect 24 0 25 0;
#X connect 25 0 39 2;
#X connect 29 0 30 1;
#X connect 30 0 32 0;
#X connect 31 0 32 1;
#X connect 32 0 39 3;
#X connect 34 0 36 1;
#X connect 36 0 0 0;
#X connect 37 0 36 2;
#X connect 39 0 4 0;
#X connect 40 0 5 0;
#X connect 40 0 9 0;
#X connect 40 0 14 0;
#X connect 40 0 17 0;
#X connect 40 0 24 0;
#X connect 40 0 30 0;
#X connect 41 0 49 0;
#X connect 42 0 43 0;
#X connect 43 0 42 1;
#X connect 43 0 50 0;
#X connect 44 0 78 0;
#X connect 45 0 46 0;
#X connect 46 0 47 0;
#X connect 47 0 48 0;
#X connect 49 0 42 0;
#X connect 50 0 44 0;
#X connect 50 0 81 0;
#X connect 50 0 83 0;
#X connect 51 0 74 1;
#X connect 52 0 75 1;
#X connect 53 0 75 2;
#X connect 54 0 75 8;
#X connect 55 0 75 5;
#X connect 56 0 75 6;
#X connect 57 0 75 7;
#X connect 58 0 75 9;
#X connect 59 0 75 10;
#X connect 60 0 75 3;
#X connect 61 0 75 4;
#X connect 73 0 74 0;
#X connect 74 0 75 0;
#X connect 75 0 76 0;
#X connect 76 0 160 0;
#X connect 77 0 79 0;
#X connect 78 0 80 0;
#X connect 79 0 80 1;
#X connect 80 0 84 0;
#X connect 81 0 77 0;
#X connect 82 0 85 0;
#X connect 83 0 82 0;
#X connect 84 0 45 0;
#X connect 85 0 84 1;
#X connect 86 0 62 0;
#X connect 87 0 88 0;
#X connect 88 0 63 0;
#X connect 89 0 90 0;
#X connect 90 0 64 0;
#X connect 91 0 65 0;
#X connect 92 0 66 0;
#X connect 93 0 67 0;
#X connect 94 0 95 0;
#X connect 95 0 68 0;
#X connect 95 0 147 0;
#X connect 96 0 69 0;
#X connect 97 0 70 0;
#X connect 98 0 71 0;
#X connect 99 0 72 0;
#X connect 100 0 91 0;
#X connect 101 0 93 0;
#X connect 102 0 92 0;
#X connect 103 0 96 0;
#X connect 104 0 97 0;
#X connect 105 0 98 0;
#X connect 106 0 99 0;
#X connect 107 0 86 0;
#X connect 108 0 42 1;
#X connect 109 0 110 0;
#X connect 110 0 111 0;
#X connect 111 0 112 0;
#X connect 112 0 116 0;
#X connect 113 0 109 0;
#X connect 114 0 113 0;
#X connect 115 0 155 0;
#X connect 116 0 126 0;
#X connect 116 1 127 0;
#X connect 116 2 128 0;
#X connect 116 3 129 0;
#X connect 116 4 130 0;
#X connect 116 5 131 0;
#X connect 116 6 132 0;
#X connect 116 7 133 0;
#X connect 118 0 107 0;
#X connect 118 1 87 0;
#X connect 118 2 89 0;
#X connect 118 3 100 0;
#X connect 118 4 102 0;
#X connect 119 0 101 0;
#X connect 119 1 94 0;
#X connect 119 2 103 0;
#X connect 119 3 104 0;
#X connect 119 4 105 0;
#X connect 119 5 106 0;
#X connect 120 0 121 0;
#X connect 121 0 122 0;
#X connect 122 0 125 0;
#X connect 122 0 213 0;
#X connect 123 0 216 0;
#X connect 124 0 123 0;
#X connect 125 0 134 0;
#X connect 125 1 135 0;
#X connect 126 0 117 0;
#X connect 127 0 117 0;
#X connect 128 0 117 0;
#X connect 129 0 117 0;
#X connect 130 0 117 0;
#X connect 131 0 117 0;
#X connect 132 0 117 0;
#X connect 133 0 117 0;
#X connect 134 0 136 0;
#X connect 135 0 136 0;
#X connect 137 0 143 1;
#X connect 138 0 151 1;
#X connect 139 0 153 1;
#X connect 140 0 158 0;
#X connect 141 0 140 0;
#X connect 141 0 142 0;
#X connect 143 0 150 0;
#X connect 144 0 218 0;
#X connect 145 0 109 0;
#X connect 146 0 216 0;
#X connect 148 0 119 0;
#X connect 149 0 118 0;
#X connect 151 0 152 0;
#X connect 153 0 154 0;
#X connect 155 0 114 0;
#X connect 156 0 124 0;
#X connect 158 0 143 0;
#X connect 158 0 151 0;
#X connect 158 0 153 0;
#X connect 159 0 157 0;
#X connect 161 0 163 0;
#X connect 162 0 156 0;
#X connect 163 0 164 0;
#X connect 164 0 218 0;
#X connect 164 0 220 0;
#X connect 165 0 169 1;
#X connect 166 0 170 1;
#X connect 167 0 171 1;
#X connect 168 0 172 0;
#X connect 169 0 180 0;
#X connect 170 0 193 0;
#X connect 171 0 205 0;
#X connect 172 0 169 0;
#X connect 172 0 170 0;
#X connect 172 0 171 0;
#X connect 174 0 176 0;
#X connect 174 0 186 1;
#X connect 175 0 174 0;
#X connect 175 1 186 0;
#X connect 176 0 183 1;
#X connect 177 0 179 0;
#X connect 177 1 185 0;
#X connect 178 0 183 0;
#X connect 179 0 178 0;
#X connect 179 0 185 1;
#X connect 180 0 181 0;
#X connect 181 0 177 0;
#X connect 181 1 175 0;
#X connect 181 2 182 0;
#X connect 182 0 183 2;
#X connect 183 0 184 0;
#X connect 185 0 179 1;
#X connect 186 0 174 1;
#X connect 187 0 189 0;
#X connect 187 0 198 1;
#X connect 188 0 187 0;
#X connect 188 1 198 0;
#X connect 189 0 196 1;
#X connect 190 0 192 0;
#X connect 190 1 197 0;
#X connect 191 0 196 0;
#X connect 192 0 191 0;
#X connect 192 0 197 1;
#X connect 193 0 194 0;
#X connect 194 0 190 0;
#X connect 194 1 188 0;
#X connect 194 2 195 0;
#X connect 195 0 196 2;
#X connect 196 0 211 0;
#X connect 197 0 192 1;
#X connect 198 0 187 1;
#X connect 199 0 201 0;
#X connect 199 0 210 1;
#X connect 200 0 199 0;
#X connect 200 1 210 0;
#X connect 201 0 208 1;
#X connect 202 0 204 0;
#X connect 202 1 209 0;
#X connect 203 0 208 0;
#X connect 204 0 203 0;
#X connect 204 0 209 1;
#X connect 205 0 206 0;
#X connect 206 0 202 0;
#X connect 206 1 200 0;
#X connect 206 2 207 0;
#X connect 207 0 208 2;
#X connect 208 0 212 0;
#X connect 209 0 204 1;
#X connect 210 0 199 1;
#X connect 214 0 215 0;
#X connect 215 0 144 0;
#X connect 216 0 120 0;
#X connect 217 0 219 0;
#X connect 218 0 40 0;
#X connect 218 0 159 1;
#X connect 219 0 1 0;
#X connect 219 0 1 1;
#X connect 220 0 221 0;
#X connect 221 0 222 0;
#X connect 222 0 223 0;
