#N canvas 4 0 1920 1026 12;
#X obj 101 363 Kicksynthesis;
#X obj 101 290 bng 19 250 50 0 empty empty empty 0 -10 0 12 #fcfcfc #000000 #000000;
#X obj 101 1002 dac~;
#X obj 643 69 oscparse;
#X obj 643 118 list trim;
#X listbox 643 94 65 0 0 0 - - - 0;
#X floatatom 324 326 5 0 0 0 - - - 0;
#X floatatom 190 178 5 0 0 0 - - - 0;
#X floatatom 841 186 5 0 0 0 - - - 0;
#X floatatom 190 224 5 0 0 0 - - - 0;
#X obj 744 142 route Light;
#X obj 841 142 route Mic;
#X floatatom 190 248 5 0 0 0 - - - 0;
#X obj 643 143 route Piezzo;
#X obj 1009 264 * 160;
#X floatatom 1009 288 5 0 0 0 - - - 0;
#X floatatom 1009 335 5 0 0 0 - - - 0;
#X obj 1009 311 + 0.1;
#X obj 190 202 * 500;
#N canvas 96 96 450 226 (subpatch) 0;
#X array my_array 96000 float 0;
#A color 0;
#A width 1;
#X coords 0 1 95999 -1 200 140 1 0 0;
#X restore 1582 256 graph;
#X obj 1924 767 r size;
#X obj 1584 525 hsl 200 19 441 44100 0 0 chunksize empty chunk\ size -2 -10 0 12 #ffe3c6 #000000 #000000 0 0;
#X obj 1583 425 hsl 200 19 1 44100 0 0 empty range read\ point -2 -10 0 12 #e3c6ff #000000 #000000 0 1;
#X obj 1925 823 s range;
#X obj 1583 181 hsl 200 19 1 44100 0 0 start range empty -2 -10 0 12 #c6ffc7 #000000 #000000 0 0;
#X obj 1583 209 hsl 200 19 1 44100 0 0 end range empty -2 -10 0 12 #c6ffc7 #000000 #000000 0 1;
#X msg 1704 451 next \$1;
#X obj 1886 552 s pitch;
#X text 1578 91 1) load soundfile;
#X text 1787 182 start point;
#X text 1788 207 end point;
#X msg 1924 797 range 1 \$1;
#X obj 1829 774 loadbang;
#X msg 1829 804 \; pd dsp 1;
#X obj 1888 524 hsl 162 19 -2 10 0 0 empty empty change\ pitch -2 -10 0 12 #feffc6 #000000 #000000 0 1;
#X msg 1836 443 0;
#X obj 1836 411 bng 19 250 50 0 empty empty reset 0 -10 0 12 #feffc6 #000000 #000000;
#N canvas 0 0 1163 1030 contr 0;
#X obj 127 121 -;
#X obj 60 34 r start;
#X obj 126 33 r end;
#X obj 60 67 t b f;
#X msg 91 278 \$1 \, \$2 \$3;
#X obj 91 246 pack f f f;
#X obj 143 69 t b f;
#X obj 39 279 r stop;
#X msg 40 312 stop;
#X obj 90 425 outlet;
#X obj 90 359 line~;
#X obj 90 395 snapshot~;
#X obj 255 310 tgl 19 0 empty empty empty 0 -10 0 12 #fcfcfc #000000 #000000 0 1;
#X obj 126 153 abs;
#X obj 254 342 metro 10;
#X obj 255 274 loadbang;
#X obj 255 122 r play;
#X obj 171 308 delay;
#X obj 92 311 t b l;
#X msg 255 155 1;
#X obj 125 183 expr $f1 / 44.1;
#X msg 40 342 0;
#X obj 301 33 r speed;
#X obj 301 67 t b f;
#X obj 203 228 *;
#X obj 195 23 loadbang;
#X msg 196 51 0;
#X connect 0 0 13 0;
#X connect 1 0 3 0;
#X connect 2 0 6 0;
#X connect 2 0 0 0;
#X connect 3 0 0 0;
#X connect 3 1 0 1;
#X connect 3 1 5 0;
#X connect 4 0 18 0;
#X connect 5 0 4 0;
#X connect 6 0 5 0;
#X connect 6 1 5 1;
#X connect 7 0 8 0;
#X connect 8 0 17 0;
#X connect 8 0 21 0;
#X connect 10 0 11 0;
#X connect 11 0 9 0;
#X connect 12 0 14 0;
#X connect 13 0 20 0;
#X connect 14 0 11 0;
#X connect 15 0 12 0;
#X connect 16 0 5 0;
#X connect 16 0 19 0;
#X connect 17 0 5 0;
#X connect 18 0 17 0;
#X connect 18 1 10 0;
#X connect 19 0 12 0;
#X connect 20 0 24 0;
#X connect 21 0 14 0;
#X connect 22 0 23 0;
#X connect 23 0 24 0;
#X connect 23 0 5 0;
#X connect 23 1 24 1;
#X connect 24 0 17 1;
#X connect 24 0 5 2;
#X connect 25 0 26 0;
#X connect 26 0 6 0;
#X restore 1580 450 pd contr;
#X text 1577 143 3) turn on volume;
#X obj 1893 643 s stop;
#X obj 1894 613 bng 25 250 50 0 empty empty empty 0 -10 0 12 #ffc7c6 #000000 #000000;
#X obj 1834 614 bng 25 250 50 0 empty empty empty 0 -10 0 12 #ffc7c6 #000000 #000000;
#X obj 1833 674 s play;
#X text 1577 116 2) choose start and end point & chunk size;
#X obj 2038 596 hsl 162 19 7 0.1 0 0 empty empty change\ speed -2 -10 0 12 #c7c6ff #000000 #000000 0 1;
#X obj 1986 593 bng 19 250 50 0 empty empty reset 0 -10 0 12 #c7c6ff #000000 #000000;
#X obj 2035 624 s speed;
#X msg 1986 625 1;
#X obj 1835 574 loadbang;
#X obj 1581 627 clone TAM_grain 40;
#X msg 1581 587 next \$1;
#X msg 1160 709 \; my_array normalize;
#X obj 774 983 soundfiler;
#X obj 774 913 bng 19 250 50 0 empty empty empty 0 -10 0 12 #fcfcfc #000000 #000000;
#X obj 774 937 openpanel;
#X floatatom 774 1007 5 0 0 0 - - - 0;
#X text 768 881 For Data Blending;
#X text 820 912 Choose your File to Datablend;
#X obj 774 1030 s size;
#X msg 774 961 read -resize -raw 0 1 2 n \$1 my_array;
#X floatatom 1387 131 5 0 0 0 - - - 0;
#X floatatom 1459 478 5 0 0 0 - - - 0;
#X floatatom 1450 101 5 0 0 0 - - - 0;
#X obj 1459 506 * 44100;
#X obj 1450 162 *, f 2;
#X obj 2035 394 * 10;
#X obj 1581 651 lop~ 1000;
#X obj 1387 202 *;
#X floatatom 1387 231 5 0 0 0 - - - 0;
#X obj 1581 675 send~ granular;
#X obj 146 770 receive~ granular;
#X obj 770 644 writesf~;
#X obj 770 550 adc~;
#X msg 841 558 open mysound.wav;
#X msg 856 585 start;
#X msg 873 606 stop;
#X obj 770 751 soundfiler;
#X floatatom 770 781 5 0 0 0 - - - 0;
#X obj 770 824 s size;
#X msg 770 687 read -resize mysound.wav my_array;
#X text 466 622 For resample the drum pattern;
#X obj 1000 507 bng 19 250 50 0 empty empty empty 0 -10 0 12 #fcfcfc #000000 #000000;
#X obj 1030 550 bng 19 250 50 0 empty empty empty 0 -10 0 12 #fcfcfc #000000 #000000;
#X obj 1070 593 bng 19 250 50 0 empty empty empty 0 -10 0 12 #fcfcfc #000000 #000000;
#X obj 1030 526 delay 50;
#X obj 1120 636 bng 19 250 50 0 empty empty empty 0 -10 0 12 #fcfcfc #000000 #000000;
#X obj 1120 612 delay 500;
#X obj 1160 679 bng 19 250 50 0 empty empty empty 0 -10 0 12 #fcfcfc #000000 #000000;
#X obj 1160 655 delay 5;
#X obj 1070 569 delay 2000;
#X text 916 477 Clic here for sampling to granular;
#X text 1160 567 Choose the time of the sample \; 2000 = 2s;
#X text 613 592 For sampling the voice;
#X text 1925 681 START AND STOP PROVOQUE BUG ON OPENING;
#X text 46 13 GRANULAR START AND STOP PROVOQUE BUG ON OPENING;
#X text 46 33 ajouter un bouton sur l'instrument pour faire le sampling play, f 63;
#X obj 643 207 s piezzo;
#X obj 324 301 r piezzo;
#X obj 1387 44 r piezzo;
#X obj 744 206 s light;
#X obj 190 152 r light;
#X obj 1459 442 r light;
#X obj 2035 345 r mic;
#X obj 54 7231 output~;
#X text 183 7230 - simple stereo output GUI abstraction;
#X obj 64 7241 output~;
#X text 193 7240 - simple stereo output GUI abstraction;
#X obj 74 7251 output~;
#X text 203 7250 - simple stereo output GUI abstraction;
#X obj 642 8 cnv 19 400 20 empty empty OSC\ DATA 20 12 0 12 #e3c6ff #404040 0;
#X obj 101 112 cnv 19 280 20 empty empty KICK 20 12 0 12 #ff0400 #404040 0;
#X obj 774 446 cnv 19 600 20 empty empty GRANULAR\ INIT 20 12 0 12 #ff8300 #404040 0;
#X obj 1275 9 cnv 19 600 20 empty empty GRANULAR\ PART 20 12 0 12 #ff0400 #404040 0;
#X floatatom 643 167 5 0 0 0 - - - 0;
#X floatatom 744 166 5 0 0 0 - - - 0;
#X obj 458 310 hsl 162 19 0 1 0 0 empty empty Piezzo -2 -10 0 12 #fcfcfc #000000 #000000 0 1;
#X obj 458 350 hsl 162 19 0 1 0 0 empty empty Light -2 -10 0 12 #fcfcfc #000000 #000000 0 1;
#X obj 458 400 hsl 162 19 0 1 0 0 empty empty Mic -2 -10 0 12 #fcfcfc #000000 #000000 0 1;
#X obj 422 915 s~ feedback;
#X obj 422 882 *~ 0.5;
#X obj 298 773 r~ feedback;
#X obj 1450 124 - 0.1;
#X obj 170 326 * 2;
#X obj 643 41 netreceive -u -b 11000;
#X obj 841 209 + 0.1;
#X obj 613 719 *~ 0.4;
#X obj 1387 68 + 0.1;
#X obj 1460 69 * 0.2;
#X obj 584 472 +;
#X floatatom 584 496 5 0 0 0 - - - 0;
#X obj 584 519 * 0.5;
#X floatatom 584 543 5 0 0 0 - - - 0;
#X obj 102 943 *~ 1;
#X obj 1270 67 loadbang;
#X msg 1270 91 44100;
#X obj 1270 143 r size;
#X obj 1270 167 + 1;
#X obj 1270 115 s size;
#X obj 101 232 tgl 19 0 empty empty empty 0 -10 0 12 #fcfcfc #000000 #000000 0 1;
#X obj 166 814 delwrite~ tapedelay 1000;
#X obj 145 950 *~ 1;
#X obj 170 885 delread4~ tapedelay 700;
#X floatatom 257 858 5 0 0 0 - - - 0;
#X obj 101 266 metro 100;
#X obj 221 985 hsl 162 19 0 1 0 0 empty empty empty -2 -10 0 12 #fcfcfc #000000 #000000 0 1;
#X obj 841 269 send mic;
#X obj 1460 45 receive mic;
#X obj 174 294 receive mic;
#X connect 0 1 71 0;
#X connect 0 1 132 0;
#X connect 1 0 0 0;
#X connect 3 0 5 0;
#X connect 4 0 10 0;
#X connect 4 0 11 0;
#X connect 4 0 13 0;
#X connect 5 0 4 0;
#X connect 6 0 0 5;
#X connect 7 0 18 0;
#X connect 8 0 124 0;
#X connect 9 0 12 0;
#X connect 10 0 114 0;
#X connect 11 0 8 0;
#X connect 12 0 143 1;
#X connect 13 0 113 0;
#X connect 14 0 15 0;
#X connect 15 0 17 0;
#X connect 17 0 16 0;
#X connect 18 0 9 0;
#X connect 20 0 31 0;
#X connect 21 0 50 0;
#X connect 22 0 26 0;
#X connect 26 0 49 1;
#X connect 31 0 23 0;
#X connect 32 0 33 0;
#X connect 34 0 27 0;
#X connect 35 0 34 0;
#X connect 36 0 35 0;
#X connect 37 0 22 0;
#X connect 40 0 39 0;
#X connect 41 0 42 0;
#X connect 44 0 46 0;
#X connect 45 0 47 0;
#X connect 47 0 44 0;
#X connect 48 0 45 0;
#X connect 48 0 36 0;
#X connect 49 0 66 0;
#X connect 50 0 49 0;
#X connect 52 0 55 0;
#X connect 53 0 54 0;
#X connect 54 0 59 0;
#X connect 55 0 58 0;
#X connect 59 0 52 0;
#X connect 60 0 67 0;
#X connect 61 0 63 0;
#X connect 62 0 121 0;
#X connect 63 0 21 0;
#X connect 64 0 24 0;
#X connect 65 0 34 0;
#X connect 65 0 44 0;
#X connect 66 0 69 0;
#X connect 67 0 68 0;
#X connect 68 0 25 0;
#X connect 70 0 139 0;
#X connect 70 0 140 0;
#X connect 72 0 71 0;
#X connect 72 0 125 0;
#X connect 73 0 71 0;
#X connect 74 0 71 0;
#X connect 75 0 71 0;
#X connect 76 0 77 0;
#X connect 77 0 78 0;
#X connect 79 0 76 0;
#X connect 81 0 84 0;
#X connect 81 0 73 0;
#X connect 82 0 74 0;
#X connect 82 0 89 0;
#X connect 83 0 75 0;
#X connect 83 0 86 0;
#X connect 84 0 82 0;
#X connect 85 0 79 0;
#X connect 85 0 88 0;
#X connect 86 0 85 0;
#X connect 87 0 51 0;
#X connect 88 0 87 0;
#X connect 89 0 83 0;
#X connect 97 0 6 0;
#X connect 98 0 126 0;
#X connect 100 0 7 0;
#X connect 101 0 61 0;
#X connect 102 0 65 0;
#X connect 113 0 96 0;
#X connect 114 0 99 0;
#X connect 114 0 128 1;
#X connect 119 0 118 0;
#X connect 121 0 64 0;
#X connect 122 0 0 2;
#X connect 123 0 3 0;
#X connect 124 0 14 0;
#X connect 124 0 145 0;
#X connect 126 0 60 0;
#X connect 127 0 62 0;
#X connect 128 0 129 0;
#X connect 129 0 130 0;
#X connect 130 0 131 0;
#X connect 132 0 2 0;
#X connect 132 0 2 1;
#X connect 133 0 134 0;
#X connect 134 0 137 0;
#X connect 134 0 60 0;
#X connect 135 0 64 1;
#X connect 135 0 136 0;
#X connect 136 0 67 1;
#X connect 138 0 143 0;
#X connect 140 0 2 1;
#X connect 140 0 2 0;
#X connect 141 0 140 0;
#X connect 142 0 141 0;
#X connect 143 0 1 0;
#X connect 144 0 140 1;
#X connect 146 0 127 0;
#X connect 147 0 122 0;
#X connect 147 0 0 3;
